Monda-Medium.ufo
<glyph name="quotedbl" format="1">
  <advance width="890"/>
  <unicode hex="0022"/>
  <outline>
    <contour>
      <point x="220" y="930" type="line"/>
      <point x="332" y="930" type="line"/>
      <point x="381" y="1506" type="line"/>
      <point x="176" y="1506" type="line"/>
    </contour>
    <contour>
      <point x="553" y="930" type="line"/>
      <point x="665" y="930" type="line"/>
      <point x="714" y="1506" type="line"/>
      <point x="509" y="1506" type="line"/>
    </contour>
  </outline>
</glyph>
<glyph name="ampersand" format="1">
  <advance width="1500"/>
  <unicode hex="0026"/>
  <outline>
    <contour>
      <point x="720" y="-24" type="curve" smooth="yes"/>
      <point x="972.667" y="-24"/>
      <point x="1110.81" y="27.7859"/>
      <point x="1186.19" y="114.251" type="curve"/>
      <point x="1328" y="-19" type="line"/>
      <point x="1432" y="94" type="line"/>
      <point x="1257.02" y="260.579" type="line"/>
      <point x="1273.67" y="331.713"/>
      <point x="1276" y="412.842"/>
      <point x="1276" y="500" type="curve" smooth="yes"/>
      <point x="1276" y="778" type="line"/>
      <point x="1101" y="778" type="line"/>
      <point x="1101" y="455" type="line" smooth="yes"/>
      <point x="1101" y="439.212"/>
      <point x="1100.74" y="424.177"/>
      <point x="1100.21" y="409.86" type="curve"/>
      <point x="578" y="907" type="line"/>
      <point x="487" y="1002"/>
      <point x="454" y="1048"/>
      <point x="454" y="1126" type="curve" smooth="yes"/>
      <point x="454" y="1242"/>
      <point x="494" y="1331"/>
      <point x="704" y="1331" type="curve" smooth="yes"/>
      <point x="892" y="1331"/>
      <point x="958" y="1302"/>
      <point x="958" y="1164" type="curve" smooth="yes"/>
      <point x="958" y="1104" type="line"/>
      <point x="1124" y="1104" type="line"/>
      <point x="1124" y="1205" type="line" smooth="yes"/>
      <point x="1124" y="1441"/>
      <point x="976" y="1483"/>
      <point x="689" y="1483" type="curve" smooth="yes"/>
      <point x="355" y="1483"/>
      <point x="264" y="1323"/>
      <point x="264" y="1142" type="curve" smooth="yes"/>
      <point x="264" y="988.427"/>
      <point x="333.986" y="912.763"/>
      <point x="438.551" y="815.757" type="curve"/>
      <point x="244.376" y="758.358"/>
      <point x="176" y="639.625"/>
      <point x="176" y="439" type="curve" smooth="yes"/>
      <point x="176" y="198"/>
      <point x="277" y="-24"/>
    </contour>
    <contour>
      <point x="720" y="126" type="curve" smooth="yes"/>
      <point x="464" y="126"/>
      <point x="378" y="239"/>
      <point x="378" y="445" type="curve" smooth="yes"/>
      <point x="378" y="567.217"/>
      <point x="388.655" y="680.419"/>
      <point x="538.327" y="723.02" type="curve"/>
      <point x="1063.27" y="229.756" type="line"/>
      <point x="1012.52" y="135.542"/>
      <point x="906.381" y="126"/>
    </contour>
  </outline>
</glyph>
<glyph name="quotesingle" format="1">
  <advance width="896"/>
  <unicode hex="0027"/>
  <outline>
    <contour>
      <point x="223.0" y="930.0" type="line"/>
      <point x="335.0" y="930.0" type="line"/>
      <point x="384.0" y="1506.0" type="line"/>
      <point x="179.0" y="1506.0" type="line"/>
    </contour>
  </outline>
</glyph>
<glyph name="comma" format="1">
  <advance width="769"/>
  <unicode hex="002C"/>
  <outline>
    <contour>
      <point x="341" y="-338" type="line"/>
      <point x="399" y="-284"/>
      <point x="513" y="-141"/>
      <point x="513" y="50" type="curve" smooth="yes"/>
      <point x="513" y="233" type="line"/>
      <point x="256" y="233" type="line"/>
      <point x="256" y="0" type="line"/>
      <point x="397" y="0" type="line"/>
      <point x="397" y="-132"/>
      <point x="307" y="-239"/>
      <point x="260" y="-294" type="curve"/>
    </contour>
  </outline>
</glyph>
<glyph name="period" format="1">
  <advance width="768"/>
  <unicode hex="002E"/>
  <outline>
    <contour>
      <point x="262" y="0" type="line"/>
      <point x="506" y="0" type="line"/>
      <point x="506" y="242" type="line"/>
      <point x="262" y="242" type="line"/>
    </contour>
  </outline>
</glyph>
<glyph name="slash" format="1">
  <advance width="1024"/>
  <unicode hex="002F"/>
  <outline>
    <contour>
      <point x="144" y="0" type="line"/>
      <point x="331" y="0" type="line"/>
      <point x="880" y="1506" type="line"/>
      <point x="697" y="1506" type="line"/>
    </contour>
  </outline>
</glyph>
<glyph name="zero" format="1">
  <advance width="1250"/>
  <unicode hex="0030"/>
  <outline>
    <contour>
      <point x="634" y="140" type="curve" smooth="yes"/>
      <point x="348" y="140"/>
      <point x="334" y="363"/>
      <point x="334" y="619" type="curve" smooth="yes"/>
      <point x="334" y="816" type="line" smooth="yes"/>
      <point x="334" y="1073"/>
      <point x="350" y="1306"/>
      <point x="634" y="1306" type="curve" smooth="yes"/>
      <point x="920" y="1306"/>
      <point x="917" y="1073"/>
      <point x="917" y="816" type="curve" smooth="yes"/>
      <point x="917" y="619" type="line" smooth="yes"/>
      <point x="917" y="363"/>
      <point x="922" y="140"/>
    </contour>
    <contour>
      <point x="634" y="-22" type="curve" smooth="yes"/>
      <point x="1099" y="-22"/>
      <point x="1118" y="353"/>
      <point x="1118" y="650" type="curve" smooth="yes"/>
      <point x="1118" y="777" type="line" smooth="yes"/>
      <point x="1118" y="1083"/>
      <point x="1101" y="1468"/>
      <point x="634" y="1468" type="curve" smooth="yes"/>
      <point x="149" y="1468"/>
      <point x="132" y="1096"/>
      <point x="132" y="790" type="curve" smooth="yes"/>
      <point x="132" y="636" type="line" smooth="yes"/>
      <point x="132" y="335"/>
      <point x="151" y="-22"/>
    </contour>
  </outline>
</glyph>
<glyph name="one" format="1">
  <advance width="1250"/>
  <unicode hex="0031"/>
  <outline>
    <contour>
      <point x="218" y="0" type="line"/>
      <point x="1174" y="0" type="line"/>
      <point x="1174" y="155" type="line"/>
      <point x="820" y="155" type="line"/>
      <point x="820" y="1446" type="line"/>
      <point x="656" y="1446" type="line"/>
      <point x="227" y="1396" type="line"/>
      <point x="245" y="1237" type="line"/>
      <point x="619" y="1277" type="line"/>
      <point x="619" y="155" type="line"/>
      <point x="218" y="155" type="line"/>
    </contour>
  </outline>
</glyph>
<glyph name="three" format="1">
  <advance width="1250"/>
  <unicode hex="0033"/>
  <outline>
    <contour>
      <point x="690" y="-22" type="curve" smooth="yes"/>
      <point x="974" y="-22"/>
      <point x="1128" y="122"/>
      <point x="1128" y="398" type="curve" smooth="yes"/>
      <point x="1128" y="642"/>
      <point x="1032" y="734"/>
      <point x="867" y="768" type="curve"/>
      <point x="1035" y="795"/>
      <point x="1099" y="901"/>
      <point x="1099" y="1091" type="curve" smooth="yes"/>
      <point x="1099" y="1354"/>
      <point x="928" y="1468"/>
      <point x="679" y="1468" type="curve" smooth="yes"/>
      <point x="422" y="1468"/>
      <point x="231" y="1404"/>
      <point x="224" y="1016" type="curve"/>
      <point x="416" y="1016" type="line"/>
      <point x="414" y="1284"/>
      <point x="502" y="1306"/>
      <point x="680" y="1306" type="curve" smooth="yes"/>
      <point x="852" y="1306"/>
      <point x="911" y="1224"/>
      <point x="911" y="1088" type="curve" smooth="yes"/>
      <point x="911" y="924"/>
      <point x="898" y="840"/>
      <point x="589" y="840" type="curve"/>
      <point x="589" y="691" type="line"/>
      <point x="889" y="691"/>
      <point x="937" y="622"/>
      <point x="937" y="399" type="curve" smooth="yes"/>
      <point x="937" y="230"/>
      <point x="874" y="140"/>
      <point x="701" y="140" type="curve" smooth="yes"/>
      <point x="502" y="140"/>
      <point x="408" y="188"/>
      <point x="397" y="461" type="curve"/>
      <point x="205" y="461" type="line"/>
      <point x="230" y="93"/>
      <point x="368" y="-22"/>
    </contour>
  </outline>
</glyph>
<glyph name="five" format="1">
  <advance width="1250"/>
  <unicode hex="0035"/>
  <outline>
    <contour>
      <point x="632" y="-22" type="curve" smooth="yes"/>
      <point x="924" y="-22"/>
      <point x="1117" y="169"/>
      <point x="1117" y="449" type="curve" smooth="yes"/>
      <point x="1117" y="734"/>
      <point x="968" y="911"/>
      <point x="669" y="911" type="curve" smooth="yes"/>
      <point x="568" y="911"/>
      <point x="469" y="877"/>
      <point x="406" y="819" type="curve"/>
      <point x="448" y="1281" type="line"/>
      <point x="1024" y="1281" type="line"/>
      <point x="1024" y="1446" type="line"/>
      <point x="287" y="1446" type="line"/>
      <point x="236" y="712" type="line"/>
      <point x="382" y="652" type="line"/>
      <point x="485" y="727"/>
      <point x="546" y="762"/>
      <point x="645" y="762" type="curve" smooth="yes"/>
      <point x="843" y="762"/>
      <point x="924" y="637"/>
      <point x="928" y="449" type="curve" smooth="yes"/>
      <point x="932" y="250"/>
      <point x="816" y="140"/>
      <point x="624" y="140" type="curve" smooth="yes"/>
      <point x="420" y="140"/>
      <point x="330" y="191"/>
      <point x="226" y="260" type="curve"/>
      <point x="173" y="107" type="line"/>
      <point x="277" y="46"/>
      <point x="408" y="-22"/>
    </contour>
  </outline>
</glyph>
<glyph name="colon" format="1">
  <advance width="896"/>
  <unicode hex="003A"/>
  <outline>
    <contour>
      <point x="324" y="99" type="line"/>
      <point x="572" y="99" type="line"/>
      <point x="572" y="353" type="line"/>
      <point x="324" y="353" type="line"/>
    </contour>
    <contour>
      <point x="324" y="805" type="line"/>
      <point x="572" y="805" type="line"/>
      <point x="572" y="1060" type="line"/>
      <point x="324" y="1060" type="line"/>
    </contour>
  </outline>
</glyph>
<glyph name="question" format="1">
  <advance width="1240"/>
  <unicode hex="003F"/>
  <outline>
    <contour>
      <point x="466" y="431" type="line"/>
      <point x="466" y="431"/>
      <point x="626" y="431"/>
      <point x="626" y="431" type="curve"/>
      <point x="834" y="650" type="line" smooth="yes"/>
      <point x="989" y="814"/>
      <point x="1096" y="910"/>
      <point x="1096" y="1093" type="curve" smooth="yes"/>
      <point x="1096" y="1256"/>
      <point x="1095.41176471" y="1468.0"/>
      <point x="626" y="1468" type="curve" smooth="yes"/>
      <point x="221" y="1468"/>
      <point x="158" y="1359"/>
      <point x="158" y="1056" type="curve" smooth="yes"/>
      <point x="158" y="962" type="line"/>
      <point x="355" y="962" type="line"/>
      <point x="355" y="962"/>
      <point x="355.0" y="1076.0"/>
      <point x="355" y="1077" type="curve" smooth="yes"/>
      <point x="355" y="1210"/>
      <point x="356" y="1306"/>
      <point x="626" y="1306" type="curve" smooth="yes"/>
      <point x="914.058083352" y="1306.0"/>
      <point x="883" y="1191"/>
      <point x="883" y="1103" type="curve" smooth="yes"/>
      <point x="883" y="986"/>
      <point x="825" y="909"/>
      <point x="740" y="795" type="curve" smooth="yes"/>
    </contour>
    <contour>
      <point x="440" y="0" type="line"/>
      <point x="644" y="0" type="line"/>
      <point x="644" y="206" type="line"/>
      <point x="440" y="206" type="line"/>
    </contour>
  </outline>
</glyph>
<glyph name="at" format="1">
  <advance width="2048"/>
  <unicode hex="0040"/>
  <outline>
    <contour>
      <point x="1051" y="-258" type="curve" smooth="yes"/>
      <point x="1274" y="-258"/>
      <point x="1503" y="-207"/>
      <point x="1618" y="-158" type="curve"/>
      <point x="1568" y="-17" type="line"/>
      <point x="1467" y="-61"/>
      <point x="1266" y="-111"/>
      <point x="1051" y="-111" type="curve" smooth="yes"/>
      <point x="716" y="-111"/>
      <point x="499" y="13"/>
      <point x="499" y="298" type="curve" smooth="yes"/>
      <point x="499" y="936" type="line" smooth="yes"/>
      <point x="499" y="1222"/>
      <point x="676" y="1331"/>
      <point x="1009" y="1331" type="curve" smooth="yes"/>
      <point x="1408" y="1331"/>
      <point x="1444" y="1180"/>
      <point x="1444" y="955" type="curve"/>
      <point x="1443" y="955"/>
      <point x="1277" y="915"/>
      <point x="1144" y="883" type="curve" smooth="yes"/>
      <point x="758" y="790"/>
      <point x="691" y="689"/>
      <point x="691" y="533" type="curve" smooth="yes"/>
      <point x="691" y="351"/>
      <point x="817" y="195"/>
      <point x="1068" y="195" type="curve" smooth="yes"/>
      <point x="1285" y="195"/>
      <point x="1415" y="296"/>
      <point x="1468" y="376" type="curve"/>
      <point x="1493" y="294"/>
      <point x="1522" y="212"/>
      <point x="1679" y="212" type="curve" smooth="yes"/>
      <point x="1719" y="212" type="line"/>
      <point x="1739" y="360" type="line"/>
      <point x="1615" y="360"/>
      <point x="1623" y="401"/>
      <point x="1623" y="516" type="curve" smooth="yes"/>
      <point x="1623" y="963" type="line" smooth="yes"/>
      <point x="1623" y="1153"/>
      <point x="1628" y="1483"/>
      <point x="1009" y="1483" type="curve" smooth="yes"/>
      <point x="468" y="1483"/>
      <point x="309" y="1236"/>
      <point x="309" y="895" type="curve" smooth="yes"/>
      <point x="309" y="332" type="line" smooth="yes"/>
      <point x="309" y="-3"/>
      <point x="513" y="-258"/>
    </contour>
    <contour>
      <point x="1100" y="343" type="curve" smooth="yes"/>
      <point x="985" y="343"/>
      <point x="901" y="396"/>
      <point x="894" y="514" type="curve" smooth="yes"/>
      <point x="887" y="627"/>
      <point x="920" y="687"/>
      <point x="1160" y="749" type="curve" smooth="yes"/>
      <point x="1312" y="788"/>
      <point x="1426" y="816"/>
      <point x="1444" y="825" type="curve"/>
      <point x="1444" y="522" type="line"/>
      <point x="1411" y="412"/>
      <point x="1226" y="343"/>
    </contour>
  </outline>
</glyph>
<glyph name="H" format="1">
  <advance width="1540"/>
  <unicode hex="0048"/>
  <outline>
    <contour>
      <point x="218" y="0" type="line"/>
      <point x="419" y="0" type="line"/>
      <point x="419" y="659" type="line"/>
      <point x="1121" y="659" type="line"/>
      <point x="1121" y="0" type="line"/>
      <point x="1322" y="0" type="line"/>
      <point x="1322" y="1446" type="line"/>
      <point x="1121" y="1446" type="line"/>
      <point x="1121" y="807" type="line"/>
      <point x="419" y="807" type="line"/>
      <point x="419" y="1446" type="line"/>
      <point x="218" y="1446" type="line"/>
    </contour>
    <contour>
      <point x="770" y="0" type="move" name="top"/>
    </contour>
    <contour>
      <point x="770" y="0" type="move" name="center"/>
    </contour>
  </outline>
</glyph>
<glyph name="S" format="1">
  <advance width="1304"/>
  <unicode hex="0053"/>
  <outline>
    <contour>
      <point x="691" y="-22" type="curve" smooth="yes"/>
      <point x="1017" y="-22"/>
      <point x="1157" y="132"/>
      <point x="1164" y="380" type="curve" smooth="yes"/>
      <point x="1171" y="618"/>
      <point x="1083" y="715"/>
      <point x="879" y="784" type="curve" smooth="yes"/>
      <point x="515" y="907" type="line" smooth="yes"/>
      <point x="372" y="955"/>
      <point x="360" y="1012"/>
      <point x="368" y="1137" type="curve" smooth="yes"/>
      <point x="376" y="1260"/>
      <point x="492" y="1306"/>
      <point x="691" y="1306" type="curve" smooth="yes"/>
      <point x="879" y="1306"/>
      <point x="1005" y="1257"/>
      <point x="1092" y="1210" type="curve"/>
      <point x="1141" y="1367" type="line"/>
      <point x="1048" y="1425"/>
      <point x="903" y="1468"/>
      <point x="656" y="1468" type="curve" smooth="yes"/>
      <point x="392" y="1468"/>
      <point x="181" y="1372"/>
      <point x="172" y="1118" type="curve" smooth="yes"/>
      <point x="164" y="900"/>
      <point x="244" y="805"/>
      <point x="453" y="736" type="curve" smooth="yes"/>
      <point x="802" y="620" type="line"/>
      <point x="995" y="558"/>
      <point x="985" y="483"/>
      <point x="972" y="352" type="curve" smooth="yes"/>
      <point x="956" y="198"/>
      <point x="887" y="140"/>
      <point x="687" y="140" type="curve" smooth="yes"/>
      <point x="510" y="140"/>
      <point x="325" y="202"/>
      <point x="215" y="267" type="curve"/>
      <point x="144" y="113" type="line"/>
      <point x="296" y="25"/>
      <point x="476" y="-22"/>
    </contour>
    <contour>
      <point x="652" y="0" type="move" name="top"/>
    </contour>
    <contour>
      <point x="652" y="0" type="move" name="bottom"/>
    </contour>
  </outline>
</glyph>
<glyph name="bracketleft" format="1">
  <advance width="768"/>
  <unicode hex="005B"/>
  <outline>
    <contour>
      <point x="195" y="-76" type="line"/>
      <point x="573" y="-76" type="line"/>
      <point x="573" y="58" type="line"/>
      <point x="383" y="58" type="line"/>
      <point x="383" y="1396" type="line"/>
      <point x="573" y="1396" type="line"/>
      <point x="573" y="1529" type="line"/>
      <point x="195" y="1529" type="line"/>
    </contour>
  </outline>
</glyph>
<glyph name="backslash" format="1">
  <advance width="768"/>
  <unicode hex="005C"/>
  <outline>
    <contour>
      <point x="569" y="0" type="line"/>
      <point x="752" y="0" type="line"/>
      <point x="203" y="1506" type="line"/>
      <point x="16" y="1506" type="line"/>
    </contour>
  </outline>
</glyph>
<glyph name="underscore" format="1">
  <advance width="929"/>
  <unicode hex="005F"/>
  <outline>
    <contour>
      <point x="14" y="-104" type="line"/>
      <point x="915" y="-104" type="line"/>
      <point x="915" y="46" type="line"/>
      <point x="14" y="46" type="line"/>
    </contour>
  </outline>
</glyph>
<glyph name="c" format="1">
  <advance width="1110"/>
  <unicode hex="0063"/>
  <outline>
    <contour>
      <point x="579" y="-22" type="curve" smooth="yes"/>
      <point x="867.209" y="-22"/>
      <point x="969" y="66"/>
      <point x="990" y="310" type="curve"/>
      <point x="816" y="310" type="line"/>
      <point x="802" y="150"/>
      <point x="765" y="122"/>
      <point x="579" y="122" type="curve" smooth="yes"/>
      <point x="427" y="122"/>
      <point x="336" y="176"/>
      <point x="336" y="328" type="curve" smooth="yes"/>
      <point x="336" y="743" type="line" smooth="yes"/>
      <point x="336" y="884"/>
      <point x="417" y="936"/>
      <point x="579" y="936" type="curve" smooth="yes"/>
      <point x="755" y="936"/>
      <point x="812" y="901"/>
      <point x="813" y="707" type="curve"/>
      <point x="992" y="724" type="line"/>
      <point x="992" y="1009"/>
      <point x="828" y="1080"/>
      <point x="574" y="1080" type="curve" smooth="yes"/>
      <point x="311" y="1080"/>
      <point x="148" y="948"/>
      <point x="148" y="748" type="curve" smooth="yes"/>
      <point x="148" y="344" type="line" smooth="yes"/>
      <point x="148" y="148"/>
      <point x="263" y="-22"/>
    </contour>
    <contour>
      <point x="555" y="0" type="move" name="top"/>
    </contour>
    <contour>
      <point x="555" y="0" type="move" name="bottom"/>
    </contour>
  </outline>
</glyph>
<glyph name="l" format="1">
  <advance width="704"/>
  <unicode hex="006C"/>
  <outline>
    <contour>
      <point x="530" y="-8" type="curve" smooth="yes"/>
      <point x="584" y="-8" type="line"/>
      <point x="606" y="150" type="line"/>
      <point x="573" y="150" type="line" smooth="yes"/>
      <point x="416" y="150"/>
      <point x="378" y="183"/>
      <point x="378" y="356" type="curve" smooth="yes"/>
      <point x="378" y="1505" type="line"/>
      <point x="190" y="1505" type="line"/>
      <point x="190" y="358" type="line" smooth="yes"/>
      <point x="190" y="49"/>
      <point x="298" y="-8"/>
    </contour>
    <contour>
      <point x="352" y="0" type="move" name="top"/>
    </contour>
    <contour>
      <point x="352" y="0" type="move" name="bottom"/>
    </contour>
    <contour>
      <point x="684" y="0" type="move" name="topright"/>
    </contour>
  </outline>
</glyph>
<glyph name="n" format="1">
  <advance width="1226"/>
  <unicode hex="006E"/>
  <outline>
    <contour>
      <point x="186.0" y="0.0" type="line"/>
      <point x="374.0" y="0.0" type="line"/>
      <point x="374.0" y="755.0" type="line" smooth="yes"/>
      <point x="374.0" y="857.0"/>
      <point x="456.0" y="936.0"/>
      <point x="640.0" y="936.0" type="curve" smooth="yes"/>
      <point x="771.0" y="936.0"/>
      <point x="862.0" y="886.0"/>
      <point x="862.0" y="781.0" type="curve" smooth="yes"/>
      <point x="862.0" y="0.0" type="line"/>
      <point x="1050.0" y="0.0" type="line"/>
      <point x="1050.0" y="770.0" type="line" smooth="yes"/>
      <point x="1050.0" y="938.0"/>
      <point x="949.0" y="1080.0"/>
      <point x="688.0" y="1080.0" type="curve" smooth="yes"/>
      <point x="534.0" y="1080.0"/>
      <point x="436.0" y="1029.0"/>
      <point x="374.0" y="957.0" type="curve"/>
      <point x="374.0" y="1060.0" type="line"/>
      <point x="186.0" y="1060.0" type="line"/>
    </contour>
    <contour>
      <point x="613.0" y="0.0" type="move" name="top"/>
    </contour>
    <contour>
      <point x="613.0" y="0.0" type="move" name="bottom"/>
    </contour>
  </outline>
</glyph>
<glyph name="s" format="1">
  <advance width="1002"/>
  <unicode hex="0073"/>
  <outline>
    <contour>
      <point x="542" y="-22" type="curve" smooth="yes"/>
      <point x="801" y="-22"/>
      <point x="900" y="116"/>
      <point x="900" y="283" type="curve" smooth="yes"/>
      <point x="900" y="448"/>
      <point x="864.968" y="515.23"/>
      <point x="682" y="585" type="curve" smooth="yes"/>
      <point x="425" y="683" type="line"/>
      <point x="346" y="710"/>
      <point x="329" y="736"/>
      <point x="332" y="810" type="curve" smooth="yes"/>
      <point x="335" y="896"/>
      <point x="370" y="936"/>
      <point x="541.688" y="936" type="curve" smooth="yes"/>
      <point x="633" y="936"/>
      <point x="766" y="903"/>
      <point x="829" y="878" type="curve"/>
      <point x="874" y="1022" type="line"/>
      <point x="793" y="1053"/>
      <point x="659" y="1080"/>
      <point x="506" y="1080" type="curve" smooth="yes"/>
      <point x="251" y="1080"/>
      <point x="161" y="976"/>
      <point x="152" y="825" type="curve" smooth="yes"/>
      <point x="143" y="669"/>
      <point x="191" y="595"/>
      <point x="365" y="536" type="curve" smooth="yes"/>
      <point x="624" y="443" type="line" smooth="yes"/>
      <point x="727.277" y="405.916"/>
      <point x="736" y="363"/>
      <point x="736" y="281" type="curve" smooth="yes"/>
      <point x="736" y="192"/>
      <point x="688" y="122"/>
      <point x="515.688" y="122" type="curve" smooth="yes"/>
      <point x="368" y="122"/>
      <point x="240" y="176"/>
      <point x="191" y="202" type="curve"/>
      <point x="144" y="64" type="line"/>
      <point x="194" y="37"/>
      <point x="338" y="-22"/>
    </contour>
    <contour>
      <point x="501" y="0" type="move" name="top"/>
    </contour>
    <contour>
      <point x="501" y="0" type="move" name="bottom"/>
    </contour>
  </outline>
</glyph>
<glyph name="bar" format="1">
  <advance width="666"/>
  <unicode hex="007C"/>
  <outline>
    <contour>
      <point x="254" y="-167" type="line"/>
      <point x="432" y="-167" type="line"/>
      <point x="432" y="1555" type="line"/>
      <point x="254" y="1555" type="line"/>
    </contour>
  </outline>
</glyph>
<glyph name="braceright" format="1">
  <advance width="952"/>
  <unicode hex="007D"/>
  <outline>
    <contour>
      <point x="86" y="-207" type="line"/>
      <point x="571" y="-207"/>
      <point x="566" y="-35"/>
      <point x="566" y="271" type="curve" smooth="yes"/>
      <point x="566" y="294" type="line" smooth="yes"/>
      <point x="566" y="591"/>
      <point x="566" y="574"/>
      <point x="794" y="574" type="curve"/>
      <point x="794" y="725" type="line"/>
      <point x="566" y="725"/>
      <point x="566" y="708"/>
      <point x="566" y="1005" type="curve" smooth="yes"/>
      <point x="566" y="1028" type="line" smooth="yes"/>
      <point x="566" y="1334"/>
      <point x="571" y="1506"/>
      <point x="86" y="1506" type="curve"/>
      <point x="86" y="1355" type="line"/>
      <point x="380" y="1355"/>
      <point x="374" y="1292"/>
      <point x="374" y="1035" type="curve" smooth="yes"/>
      <point x="374" y="1002" type="line" smooth="yes"/>
      <point x="374" y="830"/>
      <point x="404" y="686"/>
      <point x="478" y="649" type="curve"/>
      <point x="404" y="613"/>
      <point x="374" y="469"/>
      <point x="374" y="297" type="curve" smooth="yes"/>
      <point x="374" y="264" type="line" smooth="yes"/>
      <point x="374" y="7"/>
      <point x="380" y="-56"/>
      <point x="86" y="-56" type="curve"/>
    </contour>
  </outline>
</glyph>
<glyph name="cent" format="1">
  <advance width="1110"/>
  <unicode hex="00A2"/>
  <outline>
    <contour>
      <point x="540" y="1013" type="line"/>
      <point x="643" y="1013" type="line"/>
      <point x="643" y="1277" type="line"/>
      <point x="540" y="1277" type="line"/>
    </contour>
    <contour>
      <point x="540" y="-205" type="line"/>
      <point x="643" y="-205" type="line"/>
      <point x="643" y="59" type="line"/>
      <point x="540" y="59" type="line"/>
    </contour>
    <component base="c"/>
  </outline>
</glyph>
<glyph name="currency" format="1">
  <advance width="1126"/>
  <unicode hex="00A4"/>
  <outline>
    <contour>
      <point x="534" y="378" type="curve" smooth="yes"/>
      <point x="638" y="378"/>
      <point x="732" y="428"/>
      <point x="791" y="505" type="curve"/>
      <point x="957" y="399" type="line"/>
      <point x="1010" y="477" type="line"/>
      <point x="837" y="588" type="line"/>
      <point x="851" y="623"/>
      <point x="858" y="662"/>
      <point x="858" y="702" type="curve" smooth="yes"/>
      <point x="858" y="762"/>
      <point x="841" y="818"/>
      <point x="813" y="867" type="curve"/>
      <point x="1000" y="996" type="line"/>
      <point x="949" y="1075" type="line"/>
      <point x="753" y="940" type="line"/>
      <point x="695" y="993"/>
      <point x="618" y="1026"/>
      <point x="534" y="1026" type="curve" smooth="yes"/>
      <point x="451" y="1026"/>
      <point x="375" y="994"/>
      <point x="317" y="942" type="curve"/>
      <point x="134" y="1061" type="line"/>
      <point x="80" y="982" type="line"/>
      <point x="257" y="869" type="line"/>
      <point x="227" y="820"/>
      <point x="210" y="763"/>
      <point x="210" y="702" type="curve" smooth="yes"/>
      <point x="210" y="654"/>
      <point x="221" y="608"/>
      <point x="240" y="566" type="curve"/>
      <point x="90" y="464" type="line"/>
      <point x="141" y="384" type="line"/>
      <point x="291" y="488" type="line"/>
      <point x="351" y="420"/>
      <point x="438" y="378"/>
    </contour>
    <contour>
      <point x="535" y="465" type="curve" smooth="yes"/>
      <point x="404" y="465"/>
      <point x="307" y="572"/>
      <point x="307" y="703" type="curve" smooth="yes"/>
      <point x="307" y="834"/>
      <point x="404" y="941"/>
      <point x="535" y="941" type="curve" smooth="yes"/>
      <point x="666" y="941"/>
      <point x="763" y="834"/>
      <point x="763" y="703" type="curve" smooth="yes"/>
      <point x="763" y="572"/>
      <point x="666" y="465"/>
    </contour>
  </outline>
</glyph>
<glyph name="macron" format="1">
  <advance width="513"/>
  <unicode hex="00AF"/>
  <outline>
    <contour>
      <point x="56" y="1354" type="line"/>
      <point x="457" y="1354" type="line"/>
      <point x="457" y="1506" type="line"/>
      <point x="56" y="1506" type="line"/>
    </contour>
    <contour>
      <point x="256.5" y="0" type="move" name="_top"/>
    </contour>
  </outline>
</glyph>
<glyph name="uni00B2" format="1">
  <advance width="1052"/>
  <unicode hex="00B2"/>
  <outline>
    <contour>
      <point x="230.312" y="449" type="line"/>
      <point x="815.142" y="449" type="line"/>
      <point x="815.142" y="548.741" type="line"/>
      <point x="350.046" y="548.741" type="line"/>
      <point x="669.536" y="865.403" type="line"/>
      <point x="765.202" y="963.75"/>
      <point x="819.955" y="1041.87"/>
      <point x="819.955" y="1198.8" type="curve" smooth="yes"/>
      <point x="819.955" y="1359.23"/>
      <point x="702.628" y="1484.08"/>
      <point x="515.507" y="1484.08" type="curve" smooth="yes"/>
      <point x="339.817" y="1484.08"/>
      <point x="190" y="1396.2"/>
      <point x="190" y="1174.39" type="curve"/>
      <point x="310.937" y="1174.39" type="line"/>
      <point x="310.937" y="1338.3"/>
      <point x="397.578" y="1387.13"/>
      <point x="524.532" y="1387.13" type="curve" smooth="yes"/>
      <point x="632.834" y="1387.13"/>
      <point x="691.196" y="1318.08"/>
      <point x="697.814" y="1212.75" type="curve" smooth="yes"/>
      <point x="704.433" y="1103.25"/>
      <point x="670.739" y="1047.45"/>
      <point x="578.081" y="947.707" type="curve" smooth="yes"/>
      <point x="218.881" y="559.204" type="line"/>
    </contour>
  </outline>
</glyph>
<glyph name="uni00B3" format="1">
  <advance width="1173"/>
  <unicode hex="00B3"/>
  <outline>
    <contour>
      <point x="589.692" y="418.031" type="curve" smooth="yes"/>
      <point x="790.186" y="418.031"/>
      <point x="947.616" y="509.943"/>
      <point x="947.616" y="719.221" type="curve" smooth="yes"/>
      <point x="947.616" y="891.733"/>
      <point x="865.018" y="948.294"/>
      <point x="735.121" y="972.333" type="curve"/>
      <point x="867.842" y="997.078"/>
      <point x="927.143" y="1072.02"/>
      <point x="927.143" y="1206.36" type="curve" smooth="yes"/>
      <point x="927.143" y="1394.42"/>
      <point x="766.889" y="1483.51"/>
      <point x="591.104" y="1483.51" type="curve" smooth="yes"/>
      <point x="388.492" y="1483.51"/>
      <point x="218.355" y="1427.65"/>
      <point x="213.413" y="1153.33" type="curve"/>
      <point x="348.958" y="1153.33" type="line"/>
      <point x="347.547" y="1342.81"/>
      <point x="442.852" y="1378.16"/>
      <point x="589.692" y="1378.16" type="curve" smooth="yes"/>
      <point x="739.356" y="1378.16"/>
      <point x="794.422" y="1300.39"/>
      <point x="794.422" y="1204.23" type="curve" smooth="yes"/>
      <point x="794.422" y="1102.42"/>
      <point x="788.068" y="1020.41"/>
      <point x="499.329" y="1020.41" type="curve"/>
      <point x="499.329" y="920.721" type="line"/>
      <point x="753.476" y="920.721"/>
      <point x="812.776" y="862.038"/>
      <point x="812.776" y="711.443" type="curve" smooth="yes"/>
      <point x="812.776" y="584.888"/>
      <point x="719.59" y="524.791"/>
      <point x="597.458" y="524.791" type="curve" smooth="yes"/>
      <point x="456.971" y="524.791"/>
      <point x="344.017" y="546.709"/>
      <point x="338.369" y="760.935" type="curve"/>
      <point x="200" y="760.935" type="line"/>
      <point x="210.59" y="486.612"/>
      <point x="358.136" y="418.031"/>
    </contour>
  </outline>
</glyph>
<glyph name="guillemotright" format="1">
  <advance width="1054"/>
  <unicode hex="00BB"/>
  <outline>
    <contour>
      <point x="271" y="80" type="line"/>
      <point x="544" y="530" type="line"/>
      <point x="264" y="980" type="line"/>
      <point x="126" y="910" type="line"/>
      <point x="331" y="530" type="line"/>
      <point x="126" y="150" type="line"/>
    </contour>
    <contour>
      <point x="685" y="80" type="line"/>
      <point x="958" y="530" type="line"/>
      <point x="678" y="980" type="line"/>
      <point x="538" y="910" type="line"/>
      <point x="745" y="530" type="line"/>
      <point x="538" y="150" type="line"/>
    </contour>
  </outline>
</glyph>
<glyph name="onequarter" format="1">
  <advance width="2047"/>
  <unicode hex="00BC"/>
  <outline>
    <contour>
      <point x="1370.89" y="2" type="line"/>
      <point x="1883" y="2" type="line"/>
      <point x="1883" y="101" type="line"/>
      <point x="1512" y="101" type="line"/>
      <point x="1725" y="339" type="line" smooth="yes"/>
      <point x="1807" y="431"/>
      <point x="1879" y="495"/>
      <point x="1879" y="625" type="curve" smooth="yes"/>
      <point x="1879" y="758"/>
      <point x="1795" y="867"/>
      <point x="1614" y="867" type="curve" smooth="yes"/>
      <point x="1445" y="867"/>
      <point x="1332.06" y="789.106"/>
      <point x="1332.06" y="604.791" type="curve"/>
      <point x="1448.56" y="604.791" type="line"/>
      <point x="1448.56" y="740.998"/>
      <point x="1494" y="765"/>
      <point x="1616" y="765" type="curve" smooth="yes"/>
      <point x="1720" y="765"/>
      <point x="1763" y="718"/>
      <point x="1762" y="621" type="curve" smooth="yes"/>
      <point x="1761" y="542"/>
      <point x="1726" y="502"/>
      <point x="1643" y="413" type="curve"/>
      <point x="1359.88" y="93.5778" type="line"/>
    </contour>
    <contour>
      <point x="164" y="654" type="line"/>
      <point x="800" y="654" type="line"/>
      <point x="800" y="755" type="line"/>
      <point x="569" y="755" type="line"/>
      <point x="569" y="1505" type="line"/>
      <point x="462" y="1505" type="line"/>
      <point x="170" y="1472" type="line"/>
      <point x="182" y="1368" type="line"/>
      <point x="438" y="1394" type="line"/>
      <point x="438" y="755" type="line"/>
      <point x="164" y="755" type="line"/>
    </contour>
    <contour>
      <point x="687" y="0" type="line"/>
      <point x="819" y="0" type="line"/>
      <point x="1497" y="1446" type="line"/>
      <point x="1371" y="1446" type="line"/>
    </contour>
  </outline>
</glyph>
<glyph name="threequarters" format="1">
  <advance width="2047"/>
  <unicode hex="00BE"/>
  <outline>
    <contour>
      <point x="1655.0" y="0.0" type="line"/>
      <point x="1768.0" y="0.0" type="line"/>
      <point x="1768.0" y="207.0" type="line"/>
      <point x="1912.0" y="207.0" type="line"/>
      <point x="1912.0" y="298.0" type="line"/>
      <point x="1768.0" y="298.0" type="line"/>
      <point x="1768.0" y="493.0" type="line"/>
      <point x="1655.0" y="493.0" type="line"/>
      <point x="1655.0" y="298.0" type="line"/>
      <point x="1373.0" y="298.0" type="line"/>
      <point x="1721.0" y="852.0" type="line"/>
      <point x="1580.0" y="852.0" type="line"/>
      <point x="1221.0" y="299.0" type="line"/>
      <point x="1221.0" y="207.0" type="line"/>
      <point x="1655.0" y="207.0" type="line"/>
    </contour>
    <contour>
      <point x="687" y="0" type="line"/>
      <point x="819" y="0" type="line"/>
      <point x="1497" y="1446" type="line"/>
      <point x="1371" y="1446" type="line"/>
    </contour>
    <contour>
      <point x="524.972126583" y="642.116128753" type="curve" smooth="yes"/>
      <point x="733.227320712" y="642.116128753"/>
      <point x="846.154433022" y="726.446922369"/>
      <point x="846.154433022" y="888.080943466" type="curve" smooth="yes"/>
      <point x="846.154433022" y="1030.9747882"/>
      <point x="775.758311063" y="1084.85279524"/>
      <point x="654.764976445" y="1104.76423262" type="curve"/>
      <point x="777.958189874" y="1120.57625642"/>
      <point x="824.888937847" y="1182.65309061"/>
      <point x="824.888937847" y="1293.92288774" type="curve" smooth="yes"/>
      <point x="824.888937847" y="1447.94371219"/>
      <point x="699.495845607" y="1514.70559047"/>
      <point x="516.905904275" y="1514.70559047" type="curve" smooth="yes"/>
      <point x="328.449619446" y="1514.70559047"/>
      <point x="188.390668465" y="1477.22523776"/>
      <point x="183.257617905" y="1250.0005994" type="curve"/>
      <point x="324.049861824" y="1250.0005994" type="line"/>
      <point x="322.58327595" y="1406.94957641"/>
      <point x="387.113054412" y="1419.83344766"/>
      <point x="517.639197212" y="1419.83344766" type="curve" smooth="yes"/>
      <point x="643.765582389" y="1419.83344766"/>
      <point x="687.029865677" y="1371.81174574"/>
      <point x="687.029865677" y="1292.16599621" type="curve" smooth="yes"/>
      <point x="687.029865677" y="1196.12259237"/>
      <point x="677.497057495" y="1146.92962943"/>
      <point x="450.909539938" y="1146.92962943" type="curve"/>
      <point x="450.909539938" y="1059.67068325" type="line"/>
      <point x="670.897421061" y="1059.67068325"/>
      <point x="706.095482041" y="1019.26217798"/>
      <point x="706.095482041" y="888.666573978" type="curve" smooth="yes"/>
      <point x="706.095482041" y="789.695017581"/>
      <point x="659.898027005" y="736.988271571"/>
      <point x="533.038348891" y="736.988271571" type="curve" smooth="yes"/>
      <point x="387.113054412" y="736.988271571"/>
      <point x="318.183518327" y="765.09853611"/>
      <point x="310.117296019" y="924.975665673" type="curve"/>
      <point x="169.325052101" y="924.975665673" type="line"/>
      <point x="187.657375528" y="709.463637544"/>
      <point x="288.851800844" y="642.116128753"/>
    </contour>
  </outline>
</glyph>
<glyph name="Oslash" format="1">
  <advance width="1546"/>
  <unicode hex="00D8"/>
  <outline>
    <contour>
      <point x="479" y="-195" type="line"/>
      <point x="1158" y="1638" type="line"/>
      <point x="1054" y="1676" type="line"/>
      <point x="376" y="-157" type="line"/>
    </contour>
    <component base="O"/>
    <contour>
      <point x="773" y="0" type="move" name="top"/>
    </contour>
  </outline>
</glyph>
<glyph name="lslash" format="1">
  <advance width="708"/>
  <unicode hex="0142"/>
  <outline>
    <contour>
      <point x="52" y="616" type="line"/>
      <point x="604" y="887" type="line"/>
      <point x="604" y="1011" type="line"/>
      <point x="52" y="740" type="line"/>
    </contour>
    <component base="l"/>
  </outline>
</glyph>
<glyph name="napostrophe" format="1">
  <advance width="1226"/>
  <unicode hex="0149"/>
  <outline>
    <component base="commaaccentcomb" xOffset="-46" yOffset="1919"/>
    <component base="n"/>
    <contour>
      <point x="613.0" y="0.0" type="move" name="top"/>
    </contour>
    <contour>
      <point x="613.0" y="0.0" type="move" name="bottom"/>
    </contour>
  </outline>
</glyph>
<glyph name="Eng" format="1">
  <advance width="1594"/>
  <unicode hex="014A"/>
  <outline>
    <contour>
      <point x="827" y="-373" type="line"/>
      <point x="1158" y="-373"/>
      <point x="1376" y="-259"/>
      <point x="1376" y="122" type="curve" smooth="yes"/>
      <point x="1376" y="1446" type="line"/>
      <point x="1199" y="1446" type="line"/>
      <point x="1199" y="470" type="line"/>
      <point x="371" y="1446" type="line"/>
      <point x="218" y="1446" type="line"/>
      <point x="218" y="0" type="line"/>
      <point x="395" y="0" type="line"/>
      <point x="395" y="1104" type="line"/>
      <point x="1188" y="190.369" type="line"/>
      <point x="1188" y="115" type="line" smooth="yes"/>
      <point x="1188" y="-197"/>
      <point x="1043" y="-210"/>
      <point x="799" y="-232" type="curve"/>
    </contour>
  </outline>
</glyph>
<glyph name="eng" format="1">
  <advance width="1194"/>
  <unicode hex="014B"/>
  <outline>
    <contour>
      <point x="501" y="-316" type="line"/>
      <point x="832" y="-316"/>
      <point x="1050" y="-202"/>
      <point x="1050" y="179" type="curve" smooth="yes"/>
      <point x="1050" y="770" type="line" smooth="yes"/>
      <point x="1050" y="938"/>
      <point x="949" y="1080"/>
      <point x="688" y="1080" type="curve" smooth="yes"/>
      <point x="534" y="1080"/>
      <point x="436" y="1029"/>
      <point x="374" y="957" type="curve"/>
      <point x="374" y="1060" type="line"/>
      <point x="186" y="1060" type="line"/>
      <point x="186" y="0" type="line"/>
      <point x="374" y="0" type="line"/>
      <point x="374" y="755" type="line" smooth="yes"/>
      <point x="374" y="857"/>
      <point x="456" y="936"/>
      <point x="640" y="936" type="curve" smooth="yes"/>
      <point x="771" y="936"/>
      <point x="862" y="886"/>
      <point x="862" y="781" type="curve" smooth="yes"/>
      <point x="862" y="172" type="line" smooth="yes"/>
      <point x="862" y="-140"/>
      <point x="717" y="-153"/>
      <point x="473" y="-175" type="curve"/>
    </contour>
  </outline>
</glyph>
<glyph name="florin" format="1">
  <advance width="890"/>
  <unicode hex="0192"/>
  <outline>
    <contour>
      <point x="250.584" y="-190.401" type="curve" smooth="yes"/>
      <point x="451.314" y="-190.401"/>
      <point x="521" y="-98.358"/>
      <point x="521" y="91" type="curve" smooth="yes"/>
      <point x="521" y="727" type="line"/>
      <point x="650" y="727" type="line"/>
      <point x="650" y="858" type="line"/>
      <point x="521" y="858" type="line"/>
      <point x="521" y="1177" type="line" smooth="yes"/>
      <point x="521" y="1262.72"/>
      <point x="541.852" y="1335.06"/>
      <point x="679.667" y="1335.06" type="curve" smooth="yes"/>
      <point x="689.207" y="1335.06"/>
      <point x="699.307" y="1334.71"/>
      <point x="710" y="1334" type="curve"/>
      <point x="710" y="1458" type="line"/>
      <point x="671.922" y="1462.08"/>
      <point x="637.354" y="1464.17"/>
      <point x="606.029" y="1464.17" type="curve" smooth="yes"/>
      <point x="397.98" y="1464.17"/>
      <point x="333" y="1371.78"/>
      <point x="333" y="1155" type="curve" smooth="yes"/>
      <point x="333" y="858" type="line"/>
      <point x="216" y="858" type="line"/>
      <point x="216" y="727" type="line"/>
      <point x="333" y="727" type="line"/>
      <point x="333" y="63" type="line" smooth="yes"/>
      <point x="333" y="-18.0222"/>
      <point x="299.991" y="-61.2689"/>
      <point x="189.057" y="-61.2689" type="curve" smooth="yes"/>
      <point x="174.428" y="-61.2689"/>
      <point x="158.443" y="-60.5168"/>
      <point x="141" y="-59" type="curve"/>
      <point x="141" y="-183" type="line"/>
      <point x="181.232" y="-187.926"/>
      <point x="217.67" y="-190.401"/>
    </contour>
  </outline>
</glyph>
<glyph name="commaaccentcomb" format="1">
  <advance width="769"/>
  <unicode hex="0326"/>
  <outline>
    <contour>
      <point x="341" y="-664.1" type="line"/>
      <point x="399" y="-610.1"/>
      <point x="513" y="-467.1"/>
      <point x="513" y="-276.1" type="curve" smooth="yes"/>
      <point x="513" y="-93.0996" type="line"/>
      <point x="256" y="-93.0996" type="line"/>
      <point x="256" y="-326.1" type="line"/>
      <point x="397" y="-326.1" type="line"/>
      <point x="397" y="-458.1"/>
      <point x="307" y="-565.1"/>
      <point x="260" y="-620.1" type="curve"/>
    </contour>
    <contour>
      <point x="384.5" y="0" type="move" name="_bottom"/>
    </contour>
  </outline>
</glyph>
<glyph name="fraction" format="1">
  <advance width="768"/>
  <unicode hex="2044"/>
  <outline>
    <contour>
      <point x="16.0" y="0.0" type="line"/>
      <point x="203.0" y="0.0" type="line"/>
      <point x="752.0" y="1506.0" type="line"/>
      <point x="569.0" y="1506.0" type="line"/>
    </contour>
  </outline>
</glyph>
<glyph name="Euro" format="1">
  <advance width="1460"/>
  <unicode hex="20AC"/>
  <outline>
    <contour>
      <point x="1" y="505" type="line"/>
      <point x="743" y="505" type="line"/>
      <point x="743" y="639" type="line"/>
      <point x="1" y="639" type="line"/>
    </contour>
    <contour>
      <point x="1" y="819" type="line"/>
      <point x="743" y="819" type="line"/>
      <point x="743" y="953" type="line"/>
      <point x="1" y="953" type="line"/>
    </contour>
    <component base="C"/>
  </outline>
</glyph>
<glyph name="uni2219" format="1">
  <advance width="412"/>
  <unicode hex="2219"/>
  <outline>
    <contour>
      <point x="108.0" y="1277.0" type="line"/>
      <point x="313.0" y="1277.0" type="line"/>
      <point x="313.0" y="1483.0" type="line"/>
      <point x="108.0" y="1483.0" type="line"/>
    </contour>
    <contour>
      <point x="210.5" y="0.0" type="move" name="_top"/>
    </contour>
  </outline>
</glyph>
<glyph name="integral" format="1">
  <advance width="890"/>
  <unicode hex="222B"/>
  <outline>
    <contour>
      <point x="250.584" y="-380.401" type="curve" smooth="yes"/>
      <point x="451.314" y="-380.401"/>
      <point x="521" y="-288.358"/>
      <point x="521" y="-99" type="curve" smooth="yes"/>
      <point x="521" y="1181" type="line" smooth="yes"/>
      <point x="521" y="1266.72"/>
      <point x="541.852" y="1339.06"/>
      <point x="679.667" y="1339.06" type="curve" smooth="yes"/>
      <point x="689.207" y="1339.06"/>
      <point x="699.308" y="1338.71"/>
      <point x="710" y="1338" type="curve"/>
      <point x="710" y="1462" type="line"/>
      <point x="671.922" y="1466.08"/>
      <point x="637.354" y="1468.17"/>
      <point x="606.029" y="1468.17" type="curve" smooth="yes"/>
      <point x="397.979" y="1468.17"/>
      <point x="333" y="1375.78"/>
      <point x="333" y="1159" type="curve" smooth="yes"/>
      <point x="333" y="-127" type="line" smooth="yes"/>
      <point x="333" y="-208.022"/>
      <point x="299.99" y="-251.269"/>
      <point x="189.057" y="-251.269" type="curve" smooth="yes"/>
      <point x="174.428" y="-251.269"/>
      <point x="158.442" y="-250.517"/>
      <point x="141" y="-249" type="curve"/>
      <point x="141" y="-373" type="line"/>
      <point x="181.231" y="-377.927"/>
      <point x="217.67" y="-380.401"/>
    </contour>
  </outline>
</glyph>
<glyph name="uniFB00" format="1">
  <advance width="1513"/>
  <outline>
    <contour>
      <point x="287" y="0" type="line"/>
      <point x="475" y="0" type="line"/>
      <point x="475" y="918" type="line"/>
      <point x="1010" y="918" type="line"/>
      <point x="1010" y="0" type="line"/>
      <point x="1198" y="0" type="line"/>
      <point x="1198" y="918" type="line"/>
      <point x="1455" y="918" type="line"/>
      <point x="1455" y="1060" type="line"/>
      <point x="1198" y="1060" type="line"/>
      <point x="1198" y="1240" type="line" smooth="yes"/>
      <point x="1198" y="1316"/>
      <point x="1236" y="1373"/>
      <point x="1351" y="1373" type="curve" smooth="yes"/>
      <point x="1467" y="1373" type="line"/>
      <point x="1455" y="1506" type="line"/>
      <point x="1336" y="1506" type="line" smooth="yes"/>
      <point x="1118" y="1506"/>
      <point x="1010" y="1420"/>
      <point x="1010" y="1222" type="curve" smooth="yes"/>
      <point x="1010" y="1060" type="line"/>
      <point x="475" y="1060" type="line"/>
      <point x="475" y="1240" type="line" smooth="yes"/>
      <point x="475" y="1316"/>
      <point x="513" y="1373"/>
      <point x="628" y="1373" type="curve" smooth="yes"/>
      <point x="744" y="1373" type="line"/>
      <point x="732" y="1506" type="line"/>
      <point x="613" y="1506" type="line" smooth="yes"/>
      <point x="395" y="1506"/>
      <point x="287" y="1420"/>
      <point x="287" y="1222" type="curve" smooth="yes"/>
      <point x="287" y="1060" type="line"/>
      <point x="110" y="1060" type="line"/>
      <point x="110" y="918" type="line"/>
      <point x="287" y="918" type="line"/>
    </contour>
  </outline>
</glyph>
